<?xml version="1.0" encoding="UTF-8" ?>
<!DOCTYPE svg PUBLIC "-//W3C//DTD SVG 1.1//EN" "http://www.w3.org/Graphics/SVG/1.1/DTD/svg11.dtd">
<svg width="337pt" height="318pt" viewBox="0 0 337 318" version="1.1" xmlns="http://www.w3.org/2000/svg">
<path fill="#000000" stroke="#000000" stroke-width="0.09375" opacity="1.00" d=" M 40.00 26.92 C 39.60 24.03 41.81 20.96 44.86 21.05 C 58.55 20.91 72.26 21.07 85.96 20.98 C 88.17 21.06 90.85 20.65 92.52 22.46 C 94.35 24.12 93.90 26.80 94.08 29.00 C 117.08 29.04 140.08 28.91 163.08 29.07 C 172.75 29.22 181.56 34.03 188.74 40.21 C 195.56 45.48 202.39 50.74 209.23 56.00 C 231.15 56.02 253.07 55.96 274.99 56.03 C 281.89 55.88 288.09 62.04 287.97 68.94 C 288.05 93.96 287.97 118.98 288.00 144.00 C 288.28 148.91 285.75 153.89 281.42 156.30 C 278.61 158.05 275.19 158.12 271.98 158.09 C 254.65 158.02 237.31 158.12 219.97 158.04 C 216.73 158.40 213.78 155.17 214.62 151.97 C 215.10 149.59 217.46 147.89 219.86 148.09 C 232.03 148.03 244.20 148.09 256.37 148.06 C 258.31 137.28 267.22 128.38 278.00 126.43 C 278.00 113.50 278.00 100.56 278.00 87.62 C 267.23 85.68 258.32 76.78 256.38 66.01 C 221.87 66.04 187.36 65.92 152.86 66.06 C 147.94 65.91 145.83 73.28 150.07 75.74 C 157.89 80.31 165.91 84.52 173.81 88.96 C 180.42 80.63 191.59 76.16 202.10 78.18 C 214.68 80.21 225.01 91.33 226.17 104.02 C 227.86 117.69 218.47 131.57 205.20 135.20 C 192.82 139.11 178.65 133.33 171.90 122.39 C 165.58 123.48 159.38 121.28 153.16 120.46 C 140.34 118.57 127.72 115.14 116.00 109.55 C 116.00 115.18 116.00 120.81 116.00 126.44 C 126.79 128.37 135.67 137.30 137.63 148.07 C 149.79 148.09 161.95 148.03 174.11 148.09 C 176.92 147.82 179.58 150.21 179.49 153.05 C 179.58 155.92 176.88 158.30 174.06 158.04 C 155.72 158.09 137.36 158.09 119.02 158.04 C 112.08 158.18 105.87 151.96 106.03 145.03 C 105.95 131.43 106.03 117.83 106.00 104.23 C 103.71 102.87 101.60 101.15 99.16 100.08 C 97.45 99.92 95.72 99.99 94.00 99.98 C 93.99 102.39 94.14 104.82 93.82 107.22 C 93.28 109.81 90.54 111.29 88.03 111.00 C 73.65 110.97 59.26 111.07 44.88 110.95 C 41.78 111.04 39.58 107.91 40.00 104.99 C 40.00 78.97 40.00 52.94 40.00 26.92 M 50.00 31.00 C 50.00 54.33 50.00 77.67 50.00 101.00 C 61.33 101.00 72.67 101.00 84.00 101.00 C 84.00 77.67 84.00 54.33 84.00 31.00 C 72.67 31.00 61.33 31.00 50.00 31.00 M 94.00 39.00 C 94.00 56.00 94.00 73.00 94.00 90.01 C 97.49 90.26 101.51 89.09 104.54 91.36 C 114.64 98.42 125.94 103.73 137.81 107.07 C 146.07 109.43 154.63 110.45 163.06 112.06 C 165.66 112.45 168.49 113.31 170.98 112.05 C 176.81 109.62 176.22 100.56 170.39 98.49 C 162.06 93.85 153.66 89.32 145.37 84.62 C 138.95 81.03 136.00 72.53 138.83 65.74 C 141.02 60.04 146.86 55.96 152.99 56.02 C 166.27 55.96 179.56 56.03 192.84 56.00 C 187.73 52.10 182.71 48.11 177.57 44.26 C 172.82 40.75 166.92 38.94 161.03 39.00 C 138.69 39.00 116.34 39.00 94.00 39.00 M 266.60 66.04 C 268.38 71.37 272.63 75.62 277.96 77.40 C 277.61 73.98 278.98 69.93 277.07 66.90 C 274.03 65.04 270.01 66.38 266.60 66.04 M 181.78 95.02 C 186.59 101.71 186.10 111.31 180.56 117.43 C 183.53 121.63 187.87 124.97 193.00 125.97 C 200.98 127.80 209.78 123.81 213.75 116.68 C 217.57 110.24 217.08 101.58 212.56 95.61 C 208.22 89.56 200.19 86.49 192.92 88.17 C 188.51 89.02 184.71 91.70 181.78 95.02 M 116.04 136.65 C 116.36 140.07 115.07 144.04 116.87 147.11 C 119.90 149.05 123.97 147.68 127.40 148.04 C 125.64 142.69 121.38 138.44 116.04 136.65 M 266.60 148.04 C 270.04 147.68 274.10 149.06 277.13 147.10 C 278.92 144.04 277.64 140.07 277.96 136.65 C 272.63 138.45 268.35 142.68 266.60 148.04 Z" />
<path fill="#000000" stroke="#000000" stroke-width="0.09375" opacity="1.00" d=" M 248.16 102.14 C 251.80 101.36 255.18 105.47 253.63 108.89 C 252.41 112.43 247.11 113.16 245.01 110.06 C 242.68 107.28 244.60 102.58 248.16 102.14 Z" />
<path fill="#000000" stroke="#000000" stroke-width="0.09375" opacity="1.00" d=" M 196.12 148.15 C 199.79 147.31 203.22 151.49 201.63 154.93 C 200.38 158.43 195.15 159.14 193.03 156.08 C 190.71 153.32 192.58 148.63 196.12 148.15 Z" />
<path fill="#000000" stroke="#000000" stroke-width="0.09375" opacity="1.00" d=" M 194.59 194.52 C 208.30 185.17 226.89 183.94 241.80 191.15 C 242.77 189.15 244.28 186.92 246.82 187.05 C 261.23 186.93 275.65 187.03 290.07 187.00 C 292.97 186.59 296.05 188.82 295.95 191.88 C 296.07 218.28 295.97 244.68 296.00 271.08 C 296.39 273.95 294.21 277.01 291.18 276.94 C 276.42 277.04 261.65 277.03 246.90 276.95 C 243.66 277.08 241.85 273.86 241.80 271.00 C 211.21 271.00 180.63 271.00 150.05 271.00 C 131.80 271.31 113.55 264.22 100.44 251.50 C 91.23 242.41 82.14 233.20 72.95 224.09 C 69.62 220.97 67.29 216.70 67.07 212.09 C 66.51 205.33 70.39 198.52 76.43 195.48 C 82.86 192.04 91.38 193.27 96.53 198.44 C 104.92 206.73 113.19 215.15 121.59 223.44 C 124.98 226.81 129.11 229.30 133.41 231.34 C 130.61 221.19 138.51 209.89 149.10 209.51 C 159.26 209.32 169.43 209.50 179.59 209.43 C 184.07 203.97 188.57 198.36 194.59 194.52 M 200.56 202.56 C 194.41 206.32 190.37 212.42 185.64 217.67 C 184.51 219.09 182.67 219.51 180.93 219.43 C 170.65 219.48 160.36 219.36 150.08 219.47 C 145.76 219.45 142.15 223.88 143.05 228.11 C 143.64 231.80 147.30 234.50 151.00 234.20 C 167.66 234.20 184.33 234.22 201.00 234.18 C 203.67 234.25 207.11 233.67 208.83 236.31 C 211.15 239.25 208.83 244.18 205.04 244.14 C 186.03 244.29 167.02 244.17 148.02 244.19 C 135.62 244.19 123.32 239.19 114.49 230.48 C 106.26 222.33 98.11 214.09 89.89 205.92 C 87.25 202.98 82.28 202.71 79.42 205.47 C 76.43 208.11 76.22 213.18 79.07 215.99 C 85.81 222.89 92.71 229.64 99.51 236.49 C 103.75 240.63 107.73 245.08 112.47 248.67 C 120.70 254.98 130.60 259.09 140.88 260.45 C 146.23 261.18 151.65 260.97 157.04 261.00 C 185.36 261.00 213.68 261.00 242.00 261.00 C 242.01 241.57 241.99 222.15 242.01 202.72 C 229.78 194.57 212.82 194.38 200.56 202.56 M 252.00 197.00 C 252.00 220.33 252.00 243.67 252.00 267.00 C 263.33 267.00 274.67 267.00 286.00 267.00 C 286.00 243.67 286.00 220.33 286.00 197.00 C 274.67 197.00 263.33 197.00 252.00 197.00 Z" />
</svg>
