<svg id="logoactual" viewBox="0 0 557 152" version="1.1" xmlns="http://www.w3.org/2000/svg">
<path stroke-width="0.09375" opacity="1.00" d=" M 43.58 21.38 C 57.39 21.37 71.21 21.40 85.03 21.38 C 94.88 20.67 104.39 24.68 111.99 30.73 C 117.01 28.51 122.12 26.50 127.25 24.53 C 118.15 39.49 107.13 53.22 98.28 68.33 C 106.78 61.19 114.44 53.08 123.25 46.32 C 127.20 56.38 127.23 67.97 122.61 77.82 C 118.06 88.34 108.63 96.42 97.74 99.82 C 91.24 102.26 84.22 101.48 77.43 101.61 C 63.77 113.70 50.70 126.44 36.92 138.38 C 38.16 133.44 40.54 128.91 42.50 124.24 C 50.84 104.47 59.28 84.74 67.77 65.03 C 69.90 59.76 72.44 54.63 74.02 49.14 C 64.70 53.95 55.81 59.54 46.68 64.69 C 40.97 67.86 35.58 71.69 29.46 74.08 C 33.51 66.25 39.22 59.41 43.32 51.65 C 43.90 41.59 43.36 31.47 43.58 21.38 Z" />
<path stroke-width="0.09375" opacity="1.00" d=" M 160.62 24.33 C 170.42 24.20 180.22 24.13 190.01 24.29 C 196.55 24.31 201.51 30.69 201.34 36.95 C 201.38 46.32 201.37 55.69 201.35 65.06 C 201.45 70.45 197.91 75.86 192.61 77.31 C 187.22 78.13 181.69 77.33 176.29 78.22 C 176.43 89.69 176.22 101.16 176.38 112.62 C 171.13 112.76 165.88 112.75 160.63 112.63 C 160.71 83.20 160.72 53.77 160.62 24.33 M 176.38 39.43 C 176.31 47.15 176.32 54.88 176.37 62.60 C 179.45 62.61 182.54 62.59 185.63 62.55 C 185.64 54.84 185.63 47.13 185.63 39.42 C 182.55 39.42 179.46 39.41 176.38 39.43 Z" />
<path stroke-width="0.09375" opacity="1.00" d=" M 241.44 37.93 C 241.04 31.59 246.43 25.12 252.96 25.27 C 258.65 25.20 264.34 25.17 270.02 25.28 C 276.13 25.25 281.63 30.91 281.53 37.00 C 281.62 62.23 281.48 87.46 281.59 112.69 C 276.53 112.72 271.48 112.73 266.43 112.69 C 266.48 102.02 266.52 91.35 266.39 80.68 C 263.10 80.67 259.82 80.66 256.55 80.73 C 256.50 91.37 256.51 102.02 256.52 112.66 C 251.50 112.76 246.47 112.76 241.45 112.65 C 241.45 87.75 241.44 62.84 241.44 37.93 M 256.55 40.49 C 256.50 48.85 256.51 57.21 256.52 65.57 C 259.83 65.62 263.14 65.61 266.45 65.57 C 266.46 57.21 266.48 48.86 266.42 40.51 C 263.13 40.46 259.84 40.46 256.55 40.49 Z" />
<path stroke-width="0.09375" opacity="1.00" d=" M 327.73 26.78 C 331.10 24.69 335.23 25.34 339.00 25.22 C 343.53 25.35 348.10 24.90 352.61 25.53 C 357.30 26.71 361.51 31.00 361.61 36.00 C 361.81 40.83 361.60 45.67 361.68 50.50 C 356.67 50.44 351.65 50.46 346.64 50.51 C 346.58 47.16 346.56 43.80 346.54 40.44 C 343.23 40.46 339.91 40.47 336.60 40.49 C 336.67 59.48 336.65 78.47 336.61 97.46 C 339.93 97.50 343.26 97.53 346.59 97.54 C 346.59 90.55 346.50 83.56 346.60 76.58 C 344.89 76.56 343.18 76.55 341.48 76.54 C 341.41 71.55 341.41 66.57 341.51 61.58 C 348.20 61.48 354.90 61.55 361.59 61.56 C 361.74 74.72 361.68 87.89 361.66 101.05 C 362.03 106.98 356.94 112.56 351.00 112.67 C 345.00 112.83 338.99 112.76 332.99 112.69 C 326.50 112.79 321.07 106.40 321.54 100.05 C 321.57 79.35 321.56 58.65 321.55 37.95 C 321.29 33.42 323.81 29.01 327.73 26.78 Z" />
<path stroke-width="0.09375" opacity="1.00" d=" M 410.47 25.75 C 416.92 24.65 423.55 25.44 430.08 25.25 C 436.94 24.84 442.68 31.23 442.39 37.93 C 442.45 58.31 442.37 78.69 442.43 99.06 C 442.60 103.34 441.06 107.86 437.49 110.44 C 433.71 113.59 428.52 112.59 424.00 112.75 C 419.71 112.64 415.40 113.04 411.14 112.47 C 406.24 111.09 401.98 106.34 402.35 101.05 C 402.34 79.68 402.32 58.31 402.36 36.95 C 402.13 31.94 405.89 27.38 410.47 25.75 M 417.45 40.47 C 417.35 59.49 417.39 78.50 417.43 97.51 C 420.54 97.53 423.65 97.52 426.76 97.51 C 426.79 78.50 426.83 59.48 426.74 40.46 C 423.64 40.46 420.54 40.45 417.45 40.47 Z" />
<path stroke-width="0.09375" opacity="1.00" d=" M 482.46 36.99 C 482.35 30.90 487.85 25.22 493.97 25.28 C 499.65 25.18 505.34 25.19 511.03 25.27 C 514.88 25.15 518.38 27.50 520.49 30.60 C 524.09 36.56 522.02 43.91 522.42 50.49 C 517.46 50.45 512.50 50.47 507.54 50.51 C 507.47 47.16 507.45 43.81 507.46 40.46 C 504.13 40.47 500.80 40.46 497.48 40.45 C 497.52 46.70 497.54 52.94 497.49 59.18 C 502.86 59.41 508.27 58.87 513.62 59.54 C 518.57 60.89 522.67 65.67 522.49 70.93 C 522.55 80.98 522.53 91.03 522.49 101.07 C 522.66 106.28 518.63 111.04 513.76 112.45 C 508.86 113.06 503.91 112.60 499.00 112.75 C 495.51 112.62 491.68 113.25 488.56 111.33 C 485.36 109.31 482.53 105.98 482.51 102.02 C 482.28 97.23 482.50 92.43 482.46 87.64 C 487.45 87.55 492.44 87.57 497.43 87.60 C 497.50 90.83 497.32 94.08 497.69 97.31 C 500.94 97.73 504.22 97.48 507.49 97.53 C 507.44 89.82 507.42 82.10 507.49 74.38 C 501.60 74.13 495.44 75.25 489.80 73.09 C 485.32 71.45 482.22 66.84 482.45 62.07 C 482.41 53.71 482.40 45.35 482.46 36.99 Z" />
</svg>
