<svg id="whatsapplogo" viewBox="0 0 800 800" version="1.1" xmlns="http://www.w3.org/2000/svg">
<path stroke-width="0.09375" opacity="1.00" d=" M 403.44 0.00 L 411.48 0.00 C 445.16 0.56 478.79 4.97 511.31 13.83 C 584.21 33.77 651.19 75.07 701.31 131.69 C 752.83 189.24 786.56 262.52 796.32 339.18 C 798.64 355.24 798.93 371.48 800.00 387.64 L 800.00 400.09 C 798.56 438.44 792.20 476.69 779.82 513.06 C 768.84 545.65 753.49 576.78 734.24 605.28 C 696.22 662.07 643.08 708.64 581.72 738.74 C 503.65 777.64 412.44 788.99 327.10 771.31 C 288.76 763.46 251.63 749.77 217.30 730.99 C 144.90 754.08 72.44 776.98 0.01 799.99 C 23.59 730.18 47.38 660.45 70.84 590.61 C 34.72 532.15 15.37 463.61 14.65 394.94 C 14.65 389.28 14.11 383.63 14.19 377.97 C 16.04 314.02 34.16 250.62 66.44 195.38 C 92.00 151.17 126.57 112.28 167.03 81.18 C 200.76 55.68 238.34 35.10 278.41 21.50 C 318.52 7.45 360.99 0.65 403.44 0.00 M 252.45 100.44 C 212.03 121.87 175.92 151.58 147.51 187.47 C 110.12 234.26 85.95 291.55 78.93 351.06 C 77.32 364.98 76.20 379.01 77.12 393.02 C 77.55 460.03 99.49 526.76 139.24 580.74 C 140.31 581.72 139.43 583.08 139.15 584.19 C 125.62 623.94 112.22 663.74 98.73 703.50 C 141.01 690.08 183.29 676.66 225.58 663.25 C 246.03 676.70 267.95 687.89 290.89 696.45 C 359.66 722.25 437.14 724.29 507.11 701.85 C 517.81 698.90 527.97 694.33 538.27 690.26 C 605.48 661.47 662.54 609.63 697.51 545.41 C 718.27 507.75 731.29 465.85 735.68 423.08 C 737.05 408.76 738.02 394.32 736.80 379.95 C 735.56 338.76 726.60 297.75 710.00 260.01 C 695.93 227.57 676.46 197.50 652.73 171.30 C 604.99 118.33 539.75 81.20 469.55 68.23 C 396.33 53.97 318.38 65.54 252.45 100.44 Z" />
<path stroke-width="0.09375" opacity="1.00" d=" M 268.55 212.72 C 276.60 210.77 284.83 213.15 292.96 212.70 C 296.68 212.56 300.73 211.89 304.13 213.85 C 309.49 216.90 312.36 222.69 314.81 228.09 C 324.46 250.91 333.67 273.91 343.39 296.70 C 346.09 301.66 348.49 307.42 346.78 313.13 C 342.54 325.55 333.55 335.38 325.18 345.18 C 321.65 349.24 316.83 352.60 315.21 357.98 C 314.02 362.16 316.02 366.31 318.13 369.82 C 336.78 401.00 360.90 429.25 390.50 450.51 C 409.24 464.54 430.48 474.80 452.10 483.55 C 457.32 485.98 463.84 485.26 467.82 480.89 C 479.21 467.86 490.67 454.83 500.65 440.66 C 503.11 436.97 507.36 433.99 511.99 434.84 C 521.41 436.09 529.76 441.01 538.36 444.70 C 558.17 454.17 577.93 463.75 597.63 473.44 C 601.12 475.55 605.75 477.58 606.43 482.13 C 607.81 491.10 606.30 500.23 604.49 509.04 C 602.59 516.51 601.00 524.27 597.04 530.99 C 590.63 541.04 581.24 548.80 571.37 555.28 C 559.39 562.82 546.21 569.10 532.03 570.87 C 526.98 571.64 522.15 573.63 517.00 573.73 C 503.80 573.58 490.73 570.98 478.12 567.13 C 459.30 561.28 440.67 554.83 422.33 547.62 C 383.26 532.88 348.63 508.18 318.79 479.25 C 298.45 460.04 280.70 438.27 264.22 415.71 C 260.40 410.54 257.28 404.88 253.06 400.01 C 238.36 379.82 226.26 357.42 219.79 333.20 C 212.80 307.34 214.59 278.80 226.55 254.66 C 232.28 243.02 240.71 233.00 249.68 223.73 C 254.69 218.31 261.26 214.18 268.55 212.72 Z" />
</svg>
